<?xml version="1.0" encoding="UTF-8"?><svg width="512" height="512" version="1.1" viewBox="0 0 512 512" xmlns="http://www.w3.org/2000/svg" xmlns:xlink="http://www.w3.org/1999/xlink"><!--Generated by IJSVG (https://github.com/iconjar/IJSVG)--><g transform="scale(8)"><path fill="#000" d="M28,42h8v14h-8Z"></path><path fill="#000" d="M57.28,28.463l-11.28,-9.4v-7.063c0,-1.104 -0.896,-2 -2,-2c-1.104,0 -2,0.896 -2,2v3.73l-8.72,-7.267c-0.741,-0.618 -1.819,-0.618 -2.561,0l-24,20c-0.849,0.708 -0.963,1.968 -0.256,2.817c0.708,0.849 1.968,0.963 2.817,0.256l2.72,-2.266v24.73c0,1.104 0.896,2 2,2h10v-16c0,-1.104 0.896,-2 2,-2h12c1.104,0 2,0.896 2,2v16h10c1.104,0 2,-0.896 2,-2v-24.73l2.72,2.267c0.374,0.311 0.828,0.463 1.279,0.463c0.573,0 1.142,-0.245 1.537,-0.72c0.707,-0.848 0.593,-2.109 -0.256,-2.817Z"></path></g></svg>