<svg xmlns="http://www.w3.org/2000/svg" viewBox="0 0 48 48"><title>Ui vol.1</title><g id="Layer_10" data-name="Layer 10"><path d="M24.55811,2.08936A21.91064,21.91064,0,1,0,46.46875,24,21.93507,21.93507,0,0,0,24.55811,2.08936Zm0,41.82128A19.91064,19.91064,0,1,1,44.46875,24,19.93278,19.93278,0,0,1,24.55811,43.91064Z"/><path d="M8.06348,23H6.74365a1,1,0,1,0,0,2H8.06348a1,1,0,0,0,0-2Z"/><path d="M42.37305,23H41.05322a1,1,0,0,0,0,2h1.31983a1,1,0,1,0,0-2Z"/><path d="M24.55811,39.49512a1,1,0,0,0-1,1v1.31933a1,1,0,0,0,2,0V40.49512A1.00005,1.00005,0,0,0,24.55811,39.49512Z"/><path d="M24.55811,8.50488a1.00005,1.00005,0,0,0,1-1V6.18555a1,1,0,1,0-2,0V7.50488A1,1,0,0,0,24.55811,8.50488Z"/><path d="M36.9292,34.95654a.99989.99989,0,0,0-1.41406,1.41407l.9331.9331a.99989.99989,0,1,0,1.41406-1.41406Z"/><path d="M12.66846,10.69629a.99989.99989,0,0,0-1.41407,1.41406l.93311.93311a.99989.99989,0,0,0,1.41406-1.41407Z"/><path d="M36.44824,10.69629l-.9331.9331a.99989.99989,0,1,0,1.41406,1.41407l.9331-.93311a.99989.99989,0,1,0-1.41406-1.41406Z"/><path d="M12.1875,34.95654l-.93311.93311a.99989.99989,0,1,0,1.41407,1.41406l.9331-.9331a.99989.99989,0,1,0-1.41406-1.41407Z"/><path d="M30.59814,23h-5.04V15.47363a1,1,0,0,0-2,0V24a1,1,0,0,0,1,1h6.04a1,1,0,0,0,0-2Z"/></g></svg>