<?xml version="1.0" encoding="utf-8"?>
<!-- Generator: Adobe Illustrator 26.0.1, SVG Export Plug-In . SVG Version: 6.00 Build 0)  -->
<svg version="1.1" id="Layer_1" xmlns="http://www.w3.org/2000/svg" xmlns:xlink="http://www.w3.org/1999/xlink" x="0px" y="0px"
	 viewBox="0 0 512 512" style="enable-background:new 0 0 512 512;" xml:space="preserve">
<path d="M455.36,239.44c0-24.28,0-48.55,0-72.83c0-5.05,0.02-10.1,0-15.15c-0.07-17.03-5.81-35.06-18.99-46.53
	c-8.35-7.27-18.2-10.46-29.12-10.46c-6.48,0-12.97,0-19.46,0c-8.73,0-17.45,0-26.18,0c0-9.19,0-18.38,0-27.56c0-3.69,0-7.39,0-11.08
	c0-7.72-12-7.73-12,0c0,12.88,0,25.76,0,38.64c-12.74,0-25.48,0-38.22,0c-49.67,0-99.34,0-149.01,0c0-9.19,0-18.38,0-27.56
	c0-3.69,0-7.39,0-11.08c0-7.72-12-7.73-12,0c0,12.88,0,25.76,0,38.64c-1.92,0-3.84,0-5.77,0c-11.86,0-23.73,0-35.59,0
	c-5.32,0-10.61-0.18-15.84,1.06c-10.05,2.38-18.52,9.02-24.61,17.18c-12.95,17.38-11.94,37.91-11.94,58.23
	c0,55.86,0,111.72,0,167.58c0,20.43,0,40.86,0,61.29c0,8.13,0.22,16.14,2.37,24.08c5.39,19.93,21.19,37.89,42.98,38.28
	c37.01,0.67,74.1,0,111.12,0c56.13,0,112.25,0,168.38,0c7.35,0,14.69,0,22.04,0c5.35,0,10.62,0.14,15.88-1.21
	c21.7-5.56,33.67-28.12,35.67-48.96c0.48-5,0.3-10.1,0.3-15.12C455.36,344.41,455.36,291.92,455.36,239.44z M76.67,122.03
	c4.83-7.57,12.39-13.9,21.47-15.3c4.31-0.66,8.97-0.27,13.31-0.27c11.06,0,22.11,0,33.17,0c1.92,0,3.84,0,5.77,0
	c0,9.19,0,18.38,0,27.56c0,3.69,0,7.39,0,11.08c0,7.72,12,7.73,12,0c0-12.88,0-25.76,0-38.64c33.17,0,66.33,0,99.5,0
	c29.25,0,58.49,0,87.74,0c0,9.19,0,18.38,0,27.56c0,3.69,0,7.39,0,11.08c0,7.72,12,7.73,12,0c0-12.88,0-25.76,0-38.64
	c14.52,0,29.03,0,43.55,0c7.18,0,13.72,0.65,20,4.87c13.02,8.75,18.14,25.41,18.19,40.36c0.03,10.21,0.02,20.43,0.01,30.64
	c-10.84,0-21.68,0-32.52,0c-30.82,0-61.64,0-92.46,0c-37.11,0-74.22,0-111.34,0c-32.24,0-64.48,0-96.72,0
	c-13.84,0-27.83-0.55-41.7-0.19c0-9.4,0-18.8,0-28.2C68.64,142.68,70.49,131.72,76.67,122.03z M443.36,405.76
	c-0.18,17.91-9.13,40.42-28.91,44.04c-3.73,0.68-7.8,0.37-11.58,0.37c-46.8,0-93.59,0-140.39,0c-49.64,0-99.27,0-148.91,0
	c-3.77,0-7.55,0.06-11.32,0c-17.07-0.26-28.31-15.56-32.04-30.89c-3.33-13.67-1.58-29.61-1.58-43.53c0-56.02,0-112.05,0-168.07
	c0-4.45,0-8.9,0-13.34c10.84,0,21.67,0,32.51,0c30.82,0,61.64,0,92.46,0c37.11,0,74.22,0,111.34,0c32.24,0,64.48,0,96.72,0
	c13.84,0,27.83,0.55,41.7,0.19c0,1.1,0,2.2,0,3.3c0,56.24,0,112.48,0,168.71C443.36,379.61,443.49,392.69,443.36,405.76z"/>
</svg>
