<?xml version="1.0" encoding="utf-8"?>
<!-- Generator: Adobe Illustrator 25.2.3, SVG Export Plug-In . SVG Version: 6.00 Build 0)  -->
<svg version="1.1" id="Layer_51" xmlns="http://www.w3.org/2000/svg" xmlns:xlink="http://www.w3.org/1999/xlink" x="0px" y="0px"
	 viewBox="0 0 64 64" style="enable-background:new 0 0 64 64;" xml:space="preserve">
<g id="accounting_路_bill_路_shopping_路_calculator_路_ecommerce">
	<g>
		<path d="M52,31.05V16h7c0.55,0,1-0.45,1-1V7c0-2.76-2.24-5-5-5H17c-2.76,0-5,2.24-5,5v5H7c-2.76,0-5,2.24-5,5v30
			c0,2.76,2.24,5,5,5h5v2H9c-0.55,0-1,0.45-1,1v2c0,2.76,2.24,5,5,5h34c2.76,0,5-2.24,5-5v-4.05c5.6-0.51,10-5.22,10-10.95
			C62,36.27,57.6,31.56,52,31.05z M52,7c0-1.65,1.35-3,3-3s3,1.35,3,3v7h-6V7z M7,50c-1.65,0-3-1.35-3-3V17c0-1.65,1.35-3,3-3h20
			c1.65,0,3,1.35,3,3v30c0,1.65-1.35,3-3,3H7z M13,60c-1.65,0-3-1.35-3-3v-1h32v1c0,1.12,0.37,2.16,1,3H13z M50,57
			c0,1.65-1.35,3-3,3s-3-1.35-3-3v-2c0-0.55-0.45-1-1-1H14v-2h13c2.76,0,5-2.24,5-5V17c0-2.76-2.24-5-5-5H14V7c0-1.65,1.35-3,3-3
			h34.03C50.39,4.84,50,5.87,50,7v24.05C44.4,31.56,40,36.27,40,42c0,5.73,4.4,10.44,10,10.95V57z M51,51c-4.96,0-9-4.04-9-9
			c0-4.96,4.04-9,9-9s9,4.04,9,9C60,46.96,55.96,51,51,51z"/>
		<path d="M51,39c1.221,0,2,0.592,2,1c0,0.552,0.448,1,1,1s1-0.448,1-1c0-1.421-1.259-2.571-3-2.898V36c0-0.552-0.448-1-1-1
			s-1,0.448-1,1v1.102c-1.741,0.327-3,1.477-3,2.898c0,1.682,1.757,3,4,3c1.221,0,2,0.592,2,1s-0.779,1-2,1s-2-0.592-2-1
			c0-0.552-0.448-1-1-1s-1,0.448-1,1c0,1.421,1.259,2.571,3,2.898V48c0,0.552,0.448,1,1,1s1-0.448,1-1v-1.102
			c1.741-0.327,3-1.477,3-2.898c0-1.682-1.757-3-4-3c-1.221,0-2-0.592-2-1S49.779,39,51,39z"/>
		<path d="M7,24h20c0.552,0,1-0.448,1-1v-6c0-0.552-0.448-1-1-1H7c-0.552,0-1,0.448-1,1v6C6,23.552,6.448,24,7,24z M8,18h18v4H8V18z
			"/>
		<path d="M11,26H7c-0.552,0-1,0.448-1,1v4c0,0.552,0.448,1,1,1h4c0.552,0,1-0.448,1-1v-4C12,26.448,11.552,26,11,26z M10,30H8v-2h2
			V30z"/>
		<path d="M11,34H7c-0.552,0-1,0.448-1,1v4c0,0.552,0.448,1,1,1h4c0.552,0,1-0.448,1-1v-4C12,34.448,11.552,34,11,34z M10,38H8v-2h2
			V38z"/>
		<path d="M11,42H7c-0.552,0-1,0.448-1,1v4c0,0.552,0.448,1,1,1h4c0.552,0,1-0.448,1-1v-4C12,42.448,11.552,42,11,42z M10,46H8v-2h2
			V46z"/>
		<path d="M19,26h-4c-0.552,0-1,0.448-1,1v4c0,0.552,0.448,1,1,1h4c0.552,0,1-0.448,1-1v-4C20,26.448,19.552,26,19,26z M18,30h-2v-2
			h2V30z"/>
		<path d="M19,34h-4c-0.552,0-1,0.448-1,1v4c0,0.552,0.448,1,1,1h4c0.552,0,1-0.448,1-1v-4C20,34.448,19.552,34,19,34z M18,38h-2v-2
			h2V38z"/>
		<path d="M19,42h-4c-0.552,0-1,0.448-1,1v4c0,0.552,0.448,1,1,1h4c0.552,0,1-0.448,1-1v-4C20,42.448,19.552,42,19,42z M18,46h-2v-2
			h2V46z"/>
		<path d="M27,26h-4c-0.552,0-1,0.448-1,1v4c0,0.552,0.448,1,1,1h4c0.552,0,1-0.448,1-1v-4C28,26.448,27.552,26,27,26z M26,30h-2v-2
			h2V30z"/>
		<path d="M27,34h-4c-0.552,0-1,0.448-1,1v4c0,0.552,0.448,1,1,1h4c0.552,0,1-0.448,1-1v-4C28,34.448,27.552,34,27,34z M26,38h-2v-2
			h2V38z"/>
		<path d="M27,42h-4c-0.552,0-1,0.448-1,1v4c0,0.552,0.448,1,1,1h4c0.552,0,1-0.448,1-1v-4C28,42.448,27.552,42,27,42z M26,46h-2v-2
			h2V46z"/>
		<path d="M43,9c0-0.552-0.448-1-1-1H22c-0.552,0-1,0.448-1,1s0.448,1,1,1h20C42.552,10,43,9.552,43,9z"/>
		<path d="M34,15c0,0.552,0.448,1,1,1h12c0.552,0,1-0.448,1-1s-0.448-1-1-1H35C34.448,14,34,14.448,34,15z"/>
		<path d="M47,18H35c-0.552,0-1,0.448-1,1s0.448,1,1,1h12c0.552,0,1-0.448,1-1S47.552,18,47,18z"/>
		<path d="M47,22H35c-0.552,0-1,0.448-1,1s0.448,1,1,1h12c0.552,0,1-0.448,1-1S47.552,22,47,22z"/>
		<path d="M47,26H35c-0.552,0-1,0.448-1,1s0.448,1,1,1h12c0.552,0,1-0.448,1-1S47.552,26,47,26z"/>
		<path d="M44,30h-9c-0.552,0-1,0.448-1,1s0.448,1,1,1h9c0.552,0,1-0.448,1-1S44.552,30,44,30z"/>
		<path d="M39,34h-4c-0.552,0-1,0.448-1,1s0.448,1,1,1h4c0.552,0,1-0.448,1-1S39.552,34,39,34z"/>
		<path d="M37,38h-2c-0.552,0-1,0.448-1,1s0.448,1,1,1h2c0.552,0,1-0.448,1-1S37.552,38,37,38z"/>
		<path d="M37,42h-2c-0.552,0-1,0.448-1,1s0.448,1,1,1h2c0.552,0,1-0.448,1-1S37.552,42,37,42z"/>
		<path d="M37,46h-2c-0.552,0-1,0.448-1,1s0.448,1,1,1h2c0.552,0,1-0.448,1-1S37.552,46,37,46z"/>
		<path d="M40,50h-5c-0.552,0-1,0.448-1,1s0.448,1,1,1h5c0.552,0,1-0.448,1-1S40.552,50,40,50z"/>
	</g>
</g>
</svg>
