<?xml version="1.0" encoding="utf-8"?>
<!-- Generator: Adobe Illustrator 25.2.3, SVG Export Plug-In . SVG Version: 6.00 Build 0)  -->
<svg version="1.1" xmlns="http://www.w3.org/2000/svg" xmlns:xlink="http://www.w3.org/1999/xlink" x="0px" y="0px"
	 viewBox="0 0 64 64" enable-background="new 0 0 64 64" xml:space="preserve">
<g id="Layer_1">
</g>
<g id="Layer_3">
</g>
<g id="Layer_4">
</g>
<g id="Layer_5">
</g>
<g id="Layer_6">
</g>
<g id="Layer_7">
</g>
<g id="Layer_8">
</g>
<g id="Layer_9">
</g>
<g id="Layer_10">
</g>
<g id="Layer_11">
	<g>
		<path d="M53,2H11C9.3,2,8,3.3,8,5v54c0,1.7,1.3,3,3,3h42c1.7,0,3-1.3,3-3V5C56,3.3,54.7,2,53,2z M54,59c0,0.6-0.4,1-1,1H11
			c-0.6,0-1-0.4-1-1V5c0-0.6,0.4-1,1-1h42c0.6,0,1,0.4,1,1V59z"/>
		<path d="M50,6H14c-0.6,0-1,0.4-1,1v10c0,0.6,0.4,1,1,1h36c0.6,0,1-0.4,1-1V7C51,6.4,50.6,6,50,6z M49,16H15V8h34V16z"/>
		<path d="M50,40h-6c-0.6,0-1,0.4-1,1v16c0,0.6,0.4,1,1,1h6c0.6,0,1-0.4,1-1V41C51,40.4,50.6,40,50,40z M49,56h-4V42h4V56z"/>
		<path d="M40,50h-6c-0.6,0-1,0.4-1,1v6c0,0.6,0.4,1,1,1h6c0.6,0,1-0.4,1-1v-6C41,50.4,40.6,50,40,50z M39,56h-4v-4h4V56z"/>
		<path d="M40,40h-6c-0.6,0-1,0.4-1,1v6c0,0.6,0.4,1,1,1h6c0.6,0,1-0.4,1-1v-6C41,40.4,40.6,40,40,40z M39,46h-4v-4h4V46z"/>
		<path d="M40,30h-6c-0.6,0-1,0.4-1,1v6c0,0.6,0.4,1,1,1h6c0.6,0,1-0.4,1-1v-6C41,30.4,40.6,30,40,30z M39,36h-4v-4h4V36z"/>
		<path d="M40,20h-6c-0.6,0-1,0.4-1,1v6c0,0.6,0.4,1,1,1h6c0.6,0,1-0.4,1-1v-6C41,20.4,40.6,20,40,20z M39,26h-4v-4h4V26z"/>
		<path d="M50,30h-6c-0.6,0-1,0.4-1,1v6c0,0.6,0.4,1,1,1h6c0.6,0,1-0.4,1-1v-6C51,30.4,50.6,30,50,30z M49,36h-4v-4h4V36z"/>
		<path d="M50,20h-6c-0.6,0-1,0.4-1,1v6c0,0.6,0.4,1,1,1h6c0.6,0,1-0.4,1-1v-6C51,20.4,50.6,20,50,20z M49,26h-4v-4h4V26z"/>
		<path d="M20,50h-6c-0.6,0-1,0.4-1,1v6c0,0.6,0.4,1,1,1h6c0.6,0,1-0.4,1-1v-6C21,50.4,20.6,50,20,50z M19,56h-4v-4h4V56z"/>
		<path d="M20,40h-6c-0.6,0-1,0.4-1,1v6c0,0.6,0.4,1,1,1h6c0.6,0,1-0.4,1-1v-6C21,40.4,20.6,40,20,40z M19,46h-4v-4h4V46z"/>
		<path d="M30,50h-6c-0.6,0-1,0.4-1,1v6c0,0.6,0.4,1,1,1h6c0.6,0,1-0.4,1-1v-6C31,50.4,30.6,50,30,50z M29,56h-4v-4h4V56z"/>
		<path d="M30,40h-6c-0.6,0-1,0.4-1,1v6c0,0.6,0.4,1,1,1h6c0.6,0,1-0.4,1-1v-6C31,40.4,30.6,40,30,40z M29,46h-4v-4h4V46z"/>
		<path d="M20,30h-6c-0.6,0-1,0.4-1,1v6c0,0.6,0.4,1,1,1h6c0.6,0,1-0.4,1-1v-6C21,30.4,20.6,30,20,30z M19,36h-4v-4h4V36z"/>
		<path d="M20,20h-6c-0.6,0-1,0.4-1,1v6c0,0.6,0.4,1,1,1h6c0.6,0,1-0.4,1-1v-6C21,20.4,20.6,20,20,20z M19,26h-4v-4h4V26z"/>
		<path d="M30,30h-6c-0.6,0-1,0.4-1,1v6c0,0.6,0.4,1,1,1h6c0.6,0,1-0.4,1-1v-6C31,30.4,30.6,30,30,30z M29,36h-4v-4h4V36z"/>
		<path d="M30,20h-6c-0.6,0-1,0.4-1,1v6c0,0.6,0.4,1,1,1h6c0.6,0,1-0.4,1-1v-6C31,20.4,30.6,20,30,20z M29,26h-4v-4h4V26z"/>
		<path d="M34,15h6c0.6,0,1-0.4,1-1s-0.4-1-1-1h-6c-0.6,0-1,0.4-1,1S33.4,15,34,15z"/>
		<path d="M44,15h2c0.6,0,1-0.4,1-1s-0.4-1-1-1h-2c-0.6,0-1,0.4-1,1S43.4,15,44,15z"/>
	</g>
</g>
<g id="Layer_12">
</g>
<g id="Layer_13">
</g>
<g id="Layer_14">
</g>
<g id="Layer_15">
</g>
<g id="Layer_16">
</g>
<g id="Layer_17">
</g>
<g id="Layer_18">
</g>
<g id="Layer_19">
</g>
<g id="Layer_20">
</g>
<g id="Layer_21">
</g>
<g id="Layer_22">
</g>
<g id="Layer_23">
</g>
<g id="Layer_24">
</g>
<g id="Layer_25">
</g>
<g id="Layer_26">
</g>
<g id="Layer_27">
</g>
<g id="Layer_28">
</g>
<g id="Layer_29">
</g>
<g id="Layer_30">
</g>
<g id="Layer_31">
</g>
<g id="Layer_32">
</g>
</svg>
