<svg id="Line" xmlns="http://www.w3.org/2000/svg" viewBox="0 0 64 64"><title>1</title><path d="M42.90723,25.66406A20.13918,20.13918,0,0,0,47,13.44043V10h3a3.00021,3.00021,0,0,0-.0001-6H14a3.00018,3.00018,0,0,0,.00009,6H17v3.44043A20.30007,20.30007,0,0,0,27,30.93066v2.13868A20.30007,20.30007,0,0,0,17,50.55957V54H14a3.00021,3.00021,0,0,0,.00011,6H50a3.015,3.015,0,0,0,2.12684-5.1075C51.0504,53.58411,48.46948,54.09039,47,54l0-3.44042A20.33733,20.33733,0,0,0,37,33.0674L37,30.93262A20.223,20.223,0,0,0,42.90723,25.66406ZM13.28711,7.69336A1.002,1.002,0,0,1,14,6L50,6a.97743.97743,0,0,1,.71289.30664A1.002,1.002,0,0,1,50,8c-1.3179-.00011-29.67421.00012-32,0H14A.97743.97743,0,0,1,13.28711,7.69336ZM50.71289,56.30664A1.002,1.002,0,0,1,50,58L14,58a.97743.97743,0,0,1-.71289-.30664A1.002,1.002,0,0,1,14,56c1.3179.00011,29.67421-.00012,32,0h4A.97743.97743,0,0,1,50.71289,56.30664ZM35.51953,34.52734A18.33278,18.33278,0,0,1,45,50.55959L45,54H19V50.55957a18.30132,18.30132,0,0,1,9.48242-16.0332A1.00012,1.00012,0,0,0,29,33.65039V30.34961a1.00012,1.00012,0,0,0-.51758-.876A18.30132,18.30132,0,0,1,19,13.44043V10H45v3.44043a18.33482,18.33482,0,0,1-9.48052,16.0322.99936.99936,0,0,0-.51948.877v3.30078A.99922.99922,0,0,0,35.51953,34.52734Z"/><path d="M31.62793,36.35156a15.333,15.333,0,0,0-9.61719,13.60938A.99947.99947,0,0,0,23.00977,51H40.99023a1.00558,1.00558,0,0,0,.999-1.03907,15.333,15.333,0,0,0-9.61718-13.60937A1.00026,1.00026,0,0,0,31.62793,36.35156ZM39.90918,49H24.09082A13.33549,13.33549,0,0,1,32,38.36426,13.33549,13.33549,0,0,1,39.90918,49Z"/><path d="M40.28711,20.46191A1.007,1.007,0,0,0,39.40036,19L24.59961,19a1.007,1.007,0,0,0-.88669,1.46193,15.36243,15.36243,0,0,0,7.916,7.18651,1,1,0,0,0,.74218,0A15.36255,15.36255,0,0,0,40.28711,20.46191ZM32,25.63672A13.34127,13.34127,0,0,1,26.36816,21H37.63184A13.34127,13.34127,0,0,1,32,25.63672Z"/></svg>